<svg width="31" height="31" viewBox="0 0 31 31" fill="none" xmlns="http://www.w3.org/2000/svg">
<path d="M18.842 20.6602L20.6685 18.8344L28.4307 26.5967L26.6043 28.4225L18.842 20.6602Z" fill="#616161"/>
<path d="M12.9166 23.25C18.6235 23.25 23.2499 18.6236 23.2499 12.9167C23.2499 7.20973 18.6235 2.58334 12.9166 2.58334C7.20964 2.58334 2.58325 7.20973 2.58325 12.9167C2.58325 18.6236 7.20964 23.25 12.9166 23.25Z" fill="#616161"/>
<path d="M20.9573 22.8238L22.783 20.9973L28.3992 26.6135L26.5728 28.4399L20.9573 22.8238Z" fill="#37474F"/>
<path d="M12.9166 21.3125C17.5535 21.3125 21.3124 17.5536 21.3124 12.9167C21.3124 8.27979 17.5535 4.52084 12.9166 4.52084C8.27969 4.52084 4.52075 8.27979 4.52075 12.9167C4.52075 17.5536 8.27969 21.3125 12.9166 21.3125Z" fill="#64B5F6"/>
<path d="M17.3729 9.17082C16.2749 7.87916 14.6604 7.10416 12.9166 7.10416C11.1729 7.10416 9.55827 7.87916 8.46035 9.17082C8.20202 9.42916 8.2666 9.88124 8.52494 10.075C8.78327 10.3333 9.23535 10.2687 9.4291 10.0104C10.3333 8.97707 11.5604 8.39582 12.9166 8.39582C14.2729 8.39582 15.4999 8.97707 16.4041 10.0104C16.5333 10.1396 16.727 10.2687 16.9208 10.2687C17.0499 10.2687 17.2437 10.2042 17.3083 10.1396C17.5666 9.88124 17.5666 9.42916 17.3729 9.17082Z" fill="#BBDEFB"/>
</svg>
